<?xml version="1.0" encoding="UTF-8"?>
<svg width="50px" height="33px" viewBox="0 0 50 33" version="1.1" xmlns="http://www.w3.org/2000/svg" xmlns:xlink="http://www.w3.org/1999/xlink">
    <!-- Generator: Sketch 41.2 (35397) - http://www.bohemiancoding.com/sketch -->
    <title>email</title>
    <desc>Created with Sketch.</desc>
    <defs></defs>
    <g id="Page-1" stroke="none" stroke-width="1" fill="none" fill-rule="evenodd">
        <g id="Group" transform="translate(0.000000, -5.000000)" fill="#FFFFFF">
            <g id="email" transform="translate(0.000000, 5.000000)">
                <g id="email_before">
                    <g id="Page-1">
                        <g id="email_before">
                            <path d="M2.34624873,32.5293448 C2.45681219,32.5431987 2.56946786,32.5503356 2.68379312,32.5503356 L47.3162067,32.5503356 C47.4876819,32.5503356 47.6553426,32.5343097 47.8177832,32.5036763 L32.3834641,17.069357 L25.9018409,22.0847287 C25.4633685,22.4240113 24.751961,22.4236219 24.3139919,22.0847287 L17.8176362,17.0579573 L2.34624873,32.5293448 Z M0.0809108779,30.5235679 C0.0280661506,30.3132514 0,30.0930135 0,29.8661194 L0,3.27096831 L15.4097238,15.1947549 L0.0809108779,30.5235679 Z M49.9532567,30.3680349 C49.9839473,30.2054394 50,30.0376585 50,29.8661194 L50,3.43797611 L34.7913765,15.2061547 L49.9532567,30.3680349 Z" id="Combined-Shape"></path>
                            <path d="M1.39876636,0.32646469 C1.78015518,0.11830462 2.21789598,0 2.68379312,0 L47.3162067,0 C47.8326423,0 48.3150087,0.145630739 48.724353,0.398204846 L25.9018409,18.0578831 C25.4633685,18.3971657 24.751961,18.3967763 24.3139919,18.0578831 L1.39876636,0.32646469 Z" id="Combined-Shape"></path>
                        </g>
                    </g>
                </g>
            </g>
        </g>
    </g>
</svg>