<?xml version="1.0" encoding="UTF-8"?>
<svg width="44px" height="43px" viewBox="0 0 44 43" version="1.1" xmlns="http://www.w3.org/2000/svg" xmlns:xlink="http://www.w3.org/1999/xlink">
    <!-- Generator: Sketch 41.2 (35397) - http://www.bohemiancoding.com/sketch -->
    <title>github</title>
    <desc>Created with Sketch.</desc>
    <defs></defs>
    <g id="Page-1" stroke="none" stroke-width="1" fill="none" fill-rule="evenodd">
        <g id="Group" transform="translate(-114.000000, 0.000000)" fill="#FFFFFF">
            <g id="github" transform="translate(114.000000, 0.000000)">
                <path d="M22,0 C9.845,0 0,9.8505 0,22 C0,31.72125 6.303,39.96575 15.0425,42.8725 C16.1425,43.07875 16.54675,42.3995 16.54675,41.81375 C16.54675,41.29125 16.5275,39.908 16.51925,38.07375 C10.39775,39.402 9.108,35.123 9.108,35.123 C8.107,32.582 6.6605,31.9055 6.6605,31.9055 C4.66675,30.5415 6.8145,30.569 6.8145,30.569 C9.02275,30.723 10.18325,32.835 10.18325,32.835 C12.14675,36.19825 15.334,35.2275 16.59075,34.66375 C16.78875,33.242 17.35525,32.27125 17.985,31.72125 C13.09825,31.17125 7.964,29.27925 7.964,20.8505 C7.964,18.44975 8.8165,16.48625 10.22725,14.94625 C9.97975,14.39075 9.23725,12.155 10.41975,9.1245 C10.41975,9.1245 12.26225,8.53325 16.46975,11.3795 C18.22975,10.89 20.09975,10.648 21.96975,10.637 C23.83975,10.648 25.70975,10.89 27.46975,11.3795 C31.64975,8.53325 33.49225,9.1245 33.49225,9.1245 C34.67475,12.155 33.93225,14.39075 33.71225,14.94625 C35.11475,16.48625 35.96725,18.44975 35.96725,20.8505 C35.96725,29.30125 30.82475,31.163 25.92975,31.70475 C26.69975,32.36475 27.41475,33.71225 27.41475,35.77475 C27.41475,38.71725 27.38725,41.08225 27.38725,41.79725 C27.38725,42.37475 27.77225,43.06225 28.89975,42.84225 C37.7025,39.9575 44,31.7075 44,22 C44,9.8505 34.1495,0 22,0" id="Shape"></path>
            </g>
        </g>
    </g>
</svg>