<?xml version="1.0" encoding="UTF-8"?>
<svg width="40px" height="40px" viewBox="0 0 40 40" version="1.1" xmlns="http://www.w3.org/2000/svg" xmlns:xlink="http://www.w3.org/1999/xlink">
    <!-- Generator: Sketch 41.2 (35397) - http://www.bohemiancoding.com/sketch -->
    <title>linkedin</title>
    <desc>Created with Sketch.</desc>
    <defs></defs>
    <g id="Page-1" stroke="none" stroke-width="1" fill="none" fill-rule="evenodd">
        <g id="Group" transform="translate(-62.000000, -1.000000)" fill="#FFFFFF">
            <g id="linkedin" transform="translate(62.000000, 1.000000)">
                <path d="M34.08,34.0875 L28.155,34.0875 L28.155,24.805 C28.155,22.59 28.11,19.7425 25.07,19.7425 C21.9825,19.7425 21.51,22.1525 21.51,24.6425 L21.51,34.0875 L15.585,34.0875 L15.585,15 L21.275,15 L21.275,17.6 L21.35,17.6 C22.145,16.1 24.08,14.5175 26.9675,14.5175 C32.9675,14.5175 34.08,18.4675 34.08,23.61 L34.08,34.08 L34.08,34.0875 Z M8.895,12.3875 C6.99,12.3875 5.455,10.845 5.455,8.945 C5.455,7.05 6.99,5.5075 8.895,5.5075 C10.795,5.5075 12.335,7.05 12.335,8.945 C12.335,10.845 10.7925,12.3875 8.895,12.3875 L8.895,12.3875 Z M11.865,34.0875 L5.925,34.0875 L5.925,15 L11.865,15 L11.865,34.0875 L11.865,34.0875 Z M37.04,0 L2.95,0 C1.32,0 0,1.29 0,2.8825 L0,37.1175 C0,38.71 1.32,40 2.95,40 L37.0375,40 C38.6675,40 40,38.71 40,37.1175 L40,2.8825 C40,1.29 38.6675,0 37.0375,0 L37.04,0 Z" id="Shape"></path>
            </g>
        </g>
    </g>
</svg>